<svg xmlns="http://www.w3.org/2000/svg" width="80" height="80" viewBox="0 0 80 80" fill="none"><g clip-path="url(#clip0_1_3657)"><path d="M0 39.9986C0 10.91 10.91 0 39.9986 0C69.0871 0 79.9971 10.91 79.9971 39.9986C79.9971 69.0871 69.0871 79.9971 39.9986 79.9971C10.91 79.9971 0 69.09 0 39.9986Z" fill="#FF4600"></path><path d="M42.7964 37.2994C42.7964 37.5023 42.9616 37.6676 43.1646 37.6676H68.0695C68.2869 37.6676 68.458 37.482 68.4377 37.2646C67.1069 22.8725 55.3416 12.2756 40.0624 12.2756C23.8322 12.2756 11.5624 24.2352 11.5624 39.9986C11.5624 55.762 23.8322 67.7216 40.0624 67.7216C55.3416 67.7216 67.1069 57.1247 68.4377 42.7326C68.458 42.5181 68.284 42.3296 68.0695 42.3296H43.1646C42.9616 42.3296 42.7964 42.4949 42.7964 42.6978V50.8999C42.7964 52.396 41.6425 53.7006 40.1464 53.7441C38.5982 53.7905 37.3312 52.5496 37.3312 51.013V29.0944C37.3312 27.5984 38.4851 26.2937 39.9812 26.2473C41.5294 26.2009 42.7993 27.4418 42.7993 28.9784V37.2936L42.7964 37.2994Z" fill="white"></path></g><defs><clipPath id="clip0_1_3657"><rect width="80" height="80" fill="white"></rect></clipPath></defs></svg>